<svg width="580" height="400" xmlns="http://www.w3.org/2000/svg">
 <!-- Created with Method Draw - http://github.com/duopixel/Method-Draw/ -->

 <g>
  <title>background</title>
  <rect fill="none" id="canvas_background" height="402" width="582" y="-1" x="-1"/>
 </g>
 <g>
  <title>Layer 1</title>
  <g id="usable">
  <g id="svg_50">
   <g stroke="null" id="svg_45">
    <g stroke="null" id="svg_14">
     <g stroke="null" id="svg_15">
      <g id="svg_49">
       <g stroke="null" id="svg_17">
        <path stroke="null" id="svg_18" fill="#EE947D" d="m263.735212,270.553627c-9.334663,-43.869877 3.753008,-74.005998 21.822861,-93.482398c3.269399,-3.529027 6.604287,-6.552505 9.903911,-9.198048c16.397371,-13.149183 31.953464,-16.923622 34.905495,-26.28855c1.19391,18.371554 33.021434,28.310746 41.474518,11.323317l0.196466,0.058899c-2.075489,6.842091 0.115865,13.713631 10.196092,19.328661c10.528573,5.860442 29.510231,11.308592 45.53482,20.977831c12.46301,7.524337 23.133139,17.60096 26.644343,32.414037c8.019851,33.857061 5.793234,90.29204 -4.009925,115.466419c-9.803663,25.179287 -16.040206,32.99321 -40.099759,30.823767c-24.059553,-2.174352 -120.997991,-24.182914 -140.342355,-79.439914c-2.690076,-7.6814 -4.740377,-15.009407 -6.226467,-21.984021z"/>
        <path stroke="null" id="svg_19" fill="#EE947D" d="m426.787044,164.913511c4.009925,22.141085 1.783309,28.21749 1.783309,28.21749l-0.801481,0.142339c-16.024589,-9.669239 -35.005743,-15.117389 -45.53482,-20.977831c-10.080227,-5.61503 -12.271581,-12.48657 -10.196092,-19.328661c1.7687,-5.860442 6.669776,-11.696343 12.427746,-16.702751c0.34306,-0.299403 0.700729,-0.584081 1.06797,-0.854034l2.493609,0.422109c0.000504,0 34.754871,6.945164 38.759759,29.08134z"/>
        <path stroke="null" id="svg_20" fill="#ED1D31" d="m391.680046,105.032946c16.256822,1.011098 33.328728,3.018569 33.328728,3.018569l3.117767,24.30562c0,0 -29.500155,-6.567229 -42.592864,3.052927c-0.367241,0.269953 -0.72491,0.554631 -1.06797,0.854034c-5.757971,5.006408 -10.659047,10.842309 -12.427746,16.702751l-0.196466,-0.058899c-8.453084,16.987429 -40.280608,7.048237 -41.474518,-11.323317c0.261955,-0.804952 0.423158,-1.64917 0.483609,-2.547378c0,-0.004908 0,-0.014725 0,-0.019633c0.760677,-11.475472 17.178198,-27.790472 32.492487,-32.885229c2.644737,-0.883484 5.259249,-1.428299 7.752858,-1.555913c5.425993,-0.27977 12.916897,-0.019633 20.584116,0.456467z"/>
        <path stroke="null" id="svg_21" fill="#ED1D31" d="m292.409201,145.692831c-0.413083,-12.96267 0.201504,-30.131704 4.62955,-45.096937c1.400451,-4.751179 3.188798,-9.281488 5.450678,-13.379871c12.916393,-23.441769 36.532638,-30.823767 55.242265,-26.479971c29.495118,6.842091 33.540306,39.933466 33.948352,44.296894c-7.667219,-0.4761 -15.158123,-0.736236 -20.583613,-0.456467c-2.493106,0.127614 -5.108121,0.672429 -7.752858,1.555913c-1.153609,-2.370681 -8.35737,-15.436425 -22.986545,-6.331634c-7.838498,4.878794 -9.233911,26.799007 -9.465641,36.409347c-0.478572,1.855316 -0.634737,3.651733 -0.52391,5.374526c-2.952031,9.364928 -18.508123,13.139367 -34.905495,26.28855l-1.440752,-2.090912c0,0 -1.229173,-8.304747 -1.61203,-20.089439z"/>
        <path stroke="null" id="svg_22" fill="#EE947D" d="m294.021232,165.78227l1.440752,2.090912c-3.299625,2.645543 -6.634512,5.669021 -9.903911,9.198048c-18.069853,19.476399 -31.157524,49.612521 -21.822861,93.482398c-3.002407,-2.552286 -13.284138,-12.407548 -24.512937,-35.751643c-13.364739,-27.780656 3.56158,-67.282196 13.364739,-85.079486c2.503685,-4.545033 6.342332,-7.018788 10.669626,-8.191858c11.677145,-3.160909 26.925944,3.190358 29.152561,4.16219c0.382857,11.784692 1.61203,20.089439 1.61203,20.089439z"/>
       </g>
       <path stroke="#231F20" id="svg_24" fill="none" stroke-width="21" d="m330.851088,139.017621c0.760677,-11.475472 17.178198,-27.790472 32.492487,-32.885229c2.644737,-0.883484 5.259249,-1.428299 7.752858,-1.555913c5.425993,-0.27977 12.916897,-0.019633 20.583613,0.456467c16.256822,1.011098 33.328728,3.018569 33.328728,3.018569l3.117767,24.30562c0,0 -29.500155,-6.567229 -42.592864,3.052927c-0.367241,0.269953 -0.72491,0.554631 -1.06797,0.854034c-5.757971,5.006408 -10.659047,10.842309 -12.427746,16.702751c-2.075489,6.842091 0.115865,13.713631 10.196092,19.328661c10.528573,5.860442 29.510231,11.308592 45.53482,20.977831c12.46301,7.524337 23.133139,17.60096 26.644343,32.414037c8.019851,33.857061 5.793234,90.29204 -4.009925,115.466419c-9.80316,25.179287 -16.039702,32.99321 -40.099255,30.823767c-24.059553,-2.174352 -120.997991,-24.182914 -140.342355,-79.439914c-2.690076,-7.68091 -4.740377,-15.009407 -6.226467,-21.984021c-9.334663,-43.869877 3.753008,-74.005998 21.822861,-93.482398c3.269399,-3.529027 6.604287,-6.552505 9.903911,-9.198048c16.397371,-13.149183 31.953464,-16.923622 34.905495,-26.28855c0.261955,-0.804952 0.423158,-1.64917 0.483609,-2.547378"/>
       <path stroke="#231F20" id="svg_25" fill="none" stroke-width="21" d="m294.021232,165.78227c0,0 -1.229173,-8.304747 -1.61203,-20.089439c-0.413083,-12.96267 0.201504,-30.131704 4.62955,-45.096937c1.400451,-4.751179 3.188798,-9.281488 5.450678,-13.379871c12.916393,-23.441769 36.532638,-30.823767 55.242265,-26.479971c29.495118,6.842091 33.540306,39.933466 33.948352,44.296894c0.030226,0.309219 0.040301,0.4761 0.040301,0.4761"/>
       <path stroke="#231F20" id="svg_26" fill="none" stroke-width="21" d="m330.851088,140.750231c0,0 -0.010075,-0.623347 0,-1.712977c0,-0.004908 0,-0.014725 0,-0.019633c0,-0.736236 0.010075,-1.688436 0.040301,-2.807515c0.231729,-9.61034 1.627143,-31.530554 9.465641,-36.409347c14.629175,-9.104791 21.832936,3.960952 22.986545,6.331634c0.110827,0.230687 0.166241,0.358302 0.166241,0.358302"/>
       <line stroke="#231F20" id="svg_27" fill="none" stroke-width="28" y2="70.282585" x2="314.514168" y1="22.535196" x1="299.36612"/>
       <line stroke="#231F20" id="svg_28" fill="none" stroke-width="28" y2="57.408263" x2="336.306803" y1="7.339275" x1="327.883944"/>
       <line stroke="#231F20" id="svg_29" fill="none" stroke-width="28" y2="58.998534" x2="357.288385" y1="12.983755" x1="356.396731"/>
       <polyline stroke="#231F20" id="svg_30" fill="none" stroke-width="21" points="295.8045654296875,100.23759460449219 263.28179931640625,101.53828430175781 262.7579345703125,139.8667449951172 "/>
       <path stroke="#231F20" id="svg_31" fill="none" stroke-width="21" d="m292.686269,145.815538c0,0 -0.095714,-0.044174 -0.277068,-0.122706c-2.226617,-0.971832 -17.475417,-7.323099 -29.152561,-4.16219c-4.327294,1.17307 -8.165941,3.646825 -10.669626,8.191858c-9.80316,17.797289 -26.729478,57.29883 -13.364739,85.079486c11.228799,23.344095 21.51053,33.199356 24.512937,35.751643c0.574286,0.490824 0.881579,0.711695 0.881579,0.711695"/>
       <path stroke="#231F20" id="svg_32" fill="none" stroke-width="21" d="m388.027789,135.832171c0,0 34.754367,6.945164 38.759255,29.08134c4.009925,22.141085 1.783309,28.21749 1.783309,28.21749"/>
       <line stroke="#231F20" id="svg_33" fill="none" stroke-width="28" y2="144.514853" x2="448.176672" y1="154.930145" x1="426.787044"/>
       <line stroke="#231F20" id="svg_34" fill="none" stroke-width="28" y2="176.634396" x2="449.954943" y1="176.634396" x1="430.79697"/>
       <path stroke="#231F20" id="svg_35" fill="none" stroke-width="21.2258" d="m331.445524,134.384239c-0.221654,0.61353 -0.408045,1.222153 -0.554135,1.825866c-0.478572,1.855316 -0.634737,3.651733 -0.52391,5.374526c1.19391,18.371554 33.021434,28.310746 41.474518,11.323317"/>
       <path stroke="#231F20" id="svg_37" fill="none" stroke-width="14" stroke-linecap="round" stroke-linejoin="round" d="m311.844242,244.353426c0,0 14.256393,-1.153437 23.757297,8.103509"/>
       <path stroke="#231F20" id="svg_38" fill="none" stroke-width="14" stroke-linecap="round" stroke-linejoin="round" d="m320.755748,275.029945c0,0 -10.100378,10.994465 -2.377745,26.622311"/>
       <path stroke="#231F20" id="svg_39" fill="none" stroke-width="14" stroke-linecap="round" stroke-linejoin="round" d="m308.605069,222.290873c0,0 -13.334514,6.999645 -11.515942,24.251629"/>
       <path stroke="#231F20" id="svg_40" fill="none" stroke-width="14" stroke-linecap="round" stroke-linejoin="round" d="m349.938535,161.433567c7.304513,5.806452 14.695168,14.027759 21.20374,25.414883c17.33386,30.323126 21.681808,67.763204 14.875514,102.518473"/>
       <path stroke="#231F20" id="svg_41" fill="none" stroke-width="14" stroke-linecap="round" stroke-linejoin="round" d="m383.881849,219.056341c0,0 -12.941581,6.945164 -16.423063,21.729283"/>
       <path stroke="#231F20" id="svg_42" fill="none" stroke-width="14" stroke-linecap="round" stroke-linejoin="round" d="m391.896662,255.18101c0,0 14.387875,5.38876 15.712258,25.600905"/>
       <path stroke="#231F20" id="svg_43" fill="none" stroke-width="14" stroke-linecap="round" stroke-linejoin="round" d="m375.368313,194.883244c0,0 15.137973,-0.505549 22.417297,17.988711"/>
      </g>
     </g>
    </g>
   </g>
   <g stroke="null" id="svg_5">
    <path stroke="#000000" id="svg_4" d="m315.455507,245.666656c-9.096109,0 -18.192217,5.066667 -22.090549,12.666666l-7.796664,0l-22.090549,-55.733332c-2.598888,-5.066667 -7.796664,-8.866666 -12.994441,-7.6c-5.197776,0 -10.395553,3.8 -11.694997,10.133333l-27.288326,112.73333l-38.983322,-151.999996c-1.299444,-3.8 -6.49722,-7.6 -11.694997,-8.866666c-5.197776,0 -10.395553,2.533333 -12.994441,6.333333l-48.079431,94.999997l-5.197776,0c-7.796664,0 -12.994441,5.066667 -12.994441,12.666666c0,7.6 5.197776,12.666666 12.994441,12.666666l12.994441,0c5.197776,0 9.096109,-2.533333 11.694997,-7.6l36.384434,-70.933331l42.881655,169.733329c1.299444,5.066667 6.49722,10.133333 12.994441,10.133333c0,0 0,0 0,0c6.49722,0 11.694997,-3.8 12.994441,-10.133333l29.887214,-125.399997l10.395553,25.333333c2.598888,5.066667 6.49722,7.6 11.694997,7.6l16.892773,0c3.898332,7.6 12.994441,12.666666 22.090549,12.666666c14.293885,0 25.988882,-11.4 25.988882,-25.333333c0,-12.666666 -11.694997,-24.066666 -25.988882,-24.066666z" fill="#f2f2f2"/>
   </g>
  </g>
  <text xml:space="preserve" text-anchor="start" font-family="Helvetica, Arial, sans-serif" font-size="24" id="bps" y="331.5" x="66.5" stroke-width="0" stroke="#f2f2f2" fill="#000000">70.1 bpm</text>
 </g>
 
 </g>
 
</svg>