<svg fill="#000000" xmlns="http://www.w3.org/2000/svg" data-name="Location Pin" viewBox="0 0 55 48.9" x="0px" y="0px"><title>pin-place</title><path d="M279.3,38.8l-2,2.9c12,0.6,18.9,3,19.3,4.4s-9.3,4.5-24.5,4.5-24.2-3-24.5-4.5,7.3-3.8,19.3-4.4l-2-2.9c-9.5.6-20.2,2.6-20.2,7.3s17.3,7.5,27.5,7.5,27.5-1.6,27.5-7.5S288.8,39.4,279.3,38.8ZM272,4.6a15.1,15.1,0,0,0-15.1,15.1c0,7.3,11.5,22.3,14.4,26a0.8,0.8,0,0,0,1.3,0c2.9-3.7,14.4-18.7,14.4-26A15.1,15.1,0,0,0,272,4.6Zm1.3,25.1A10.1,10.1,0,0,1,262,18.3a10.8,10.8,0,0,1,8.7-8.7A10.1,10.1,0,0,1,282,21,10.8,10.8,0,0,1,273.3,29.6Z" transform="translate(-244.5 -4.6)"/></svg>